<svg xmlns="http://www.w3.org/2000/svg" xmlns:xlink="http://www.w3.org/1999/xlink" version="1.1" width="256" height="256" viewBox="0 0 256 256" xml:space="preserve">

<defs>
</defs>
<g style="stroke: none; stroke-width: 0; stroke-dasharray: none; stroke-linecap: butt; stroke-linejoin: miter; stroke-miterlimit: 10; fill: none; fill-rule: nonzero; opacity: 1;" transform="translate(1.4065934065934016 1.4065934065934016) scale(2.81 2.81)" >
	<path d="M 88 20.462 c -1.104 0 -2 0.896 -2 2 v 45.076 c 0 1.713 -0.675 3.268 -1.768 4.424 L 62.666 49.866 c -0.74 -0.759 -1.944 -0.808 -2.744 -0.112 L 45.115 62.63 l -2.122 -2.183 c -0.771 -0.793 -2.037 -0.809 -2.828 -0.039 s -0.81 2.036 -0.039 2.828 l 3.441 3.538 c 0.739 0.76 1.945 0.812 2.746 0.114 l 14.81 -12.878 l 19.417 19.894 c -0.324 0.05 -0.653 0.084 -0.991 0.084 H 25.162 c -1.104 0 -2 0.896 -2 2 s 0.896 2 2 2 h 54.386 c 2.036 0 3.932 -0.594 5.54 -1.605 c 0.037 -0.022 0.073 -0.042 0.109 -0.066 C 88.082 74.456 90 71.22 90 67.538 V 22.462 C 90 21.357 89.104 20.462 88 20.462 z" style="stroke: none; stroke-width: 1; stroke-dasharray: none; stroke-linecap: butt; stroke-linejoin: miter; stroke-miterlimit: 10; fill: rgb(0,0,0); fill-rule: nonzero; opacity: 1;" transform=" matrix(1 0 0 1 0 0) " stroke-linecap="round" />
	<path d="M 89.489 5.094 c -0.739 -0.823 -2.001 -0.892 -2.825 -0.153 l -7.882 7.07 H 10.452 C 4.688 12.01 0 16.699 0 22.462 v 45.076 c 0 4.26 2.565 7.926 6.229 9.552 l -5.565 4.992 c -0.822 0.738 -0.891 2.003 -0.153 2.825 C 0.906 85.347 1.452 85.571 2 85.571 c 0.476 0 0.953 -0.169 1.335 -0.511 l 86 -77.143 C 90.157 7.181 90.227 5.916 89.489 5.094 z M 10.452 16.01 h 63.871 L 34.509 51.724 l -9.858 -10.135 c -0.748 -0.77 -1.971 -0.81 -2.771 -0.093 L 4 57.562 v -35.1 C 4 18.904 6.894 16.01 10.452 16.01 z M 4 67.538 v -4.599 l 19.125 -17.184 l 8.404 8.641 L 9.734 73.947 C 6.513 73.588 4 70.853 4 67.538 z" style="stroke: none; stroke-width: 1; stroke-dasharray: none; stroke-linecap: butt; stroke-linejoin: miter; stroke-miterlimit: 10; fill: rgb(0,0,0); fill-rule: nonzero; opacity: 1;" transform=" matrix(1 0 0 1 0 0) " stroke-linecap="round" />
	<path d="M 32.889 36.844 c -4.517 0 -8.191 -3.675 -8.191 -8.191 s 3.675 -8.191 8.191 -8.191 s 8.191 3.674 8.191 8.191 S 37.406 36.844 32.889 36.844 z M 32.889 24.462 c -2.311 0 -4.191 1.88 -4.191 4.191 s 1.88 4.191 4.191 4.191 s 4.191 -1.88 4.191 -4.191 S 35.2 24.462 32.889 24.462 z" style="stroke: none; stroke-width: 1; stroke-dasharray: none; stroke-linecap: butt; stroke-linejoin: miter; stroke-miterlimit: 10; fill: rgb(0,0,0); fill-rule: nonzero; opacity: 1;" transform=" matrix(1 0 0 1 0 0) " stroke-linecap="round" />
</g>
</svg>